<?xml version="1.0" standalone="no"?><!DOCTYPE svg PUBLIC "-//W3C//DTD SVG 1.1//EN" "http://www.w3.org/Graphics/SVG/1.1/DTD/svg11.dtd"><svg t="1740300667951" class="icon" viewBox="0 0 1024 1024" version="1.1" xmlns="http://www.w3.org/2000/svg" p-id="9195" width="256" height="256" xmlns:xlink="http://www.w3.org/1999/xlink"><path d="M147.911111 91.022222h182.044445c25.031111 0 45.511111 20.48 45.511111 45.511111v750.933334c0 25.031111-20.48 45.511111-45.511111 45.511111H147.911111c-25.031111 0-45.511111-20.48-45.511111-45.511111V136.533333c0-25.031111 20.48-45.511111 45.511111-45.511111z" fill="#0F6CFF" p-id="9196"></path><path d="M637.155556 106.951111l92.16-25.031111c23.893333-6.826667 48.924444 7.964444 55.751111 31.857778l194.56 725.902222c6.826667 23.893333-7.964444 48.924444-31.857778 55.751111l-176.355556 46.648889c-23.893333 6.826667-48.924444-7.964444-55.751111-31.857778L648.533333 657.635556V136.533333c0-11.377778-4.551111-21.617778-11.377777-29.582222z" fill="#72F0E8" p-id="9197"></path><path d="M637.155556 106.951111l-83.057778 22.755556c-23.893333 6.826667-38.684444 31.857778-31.857778 55.751111L648.533333 657.635556V887.466667c0 25.031111-20.48 45.511111-45.511111 45.511111H420.977778c-25.031111 0-45.511111-20.48-45.511111-45.511111V136.533333c0-25.031111 20.48-45.511111 45.511111-45.511111h182.044444c13.653333 0 26.168889 5.688889 34.133334 15.928889z" fill="#339EFF" p-id="9198"></path><path d="M637.155556 106.951111c6.826667 7.964444 11.377778 18.204444 11.377777 29.582222v521.102223L522.24 184.32c-6.826667-23.893333 7.964444-48.924444 31.857778-55.751111L637.155556 106.951111z" fill="#0F6CFF" p-id="9199"></path></svg>