<svg xmlns="http://www.w3.org/2000/svg" xmlns:xlink="http://www.w3.org/1999/xlink" width="337" height="521" viewBox="0 0 337 521" fill="none"><path     fill="#FFFFFF"  d="M0 521L337 521L337 0L0 0L0 521Z"></path><g ><path     fill="#000000"  d="M120.236 31.61C121.09 32.24 122.07 33.136 122.63 33.78L116.442 33.78L116.442 34.802L121.426 34.802L121.426 37.882L117.086 37.882L117.086 38.904L121.426 38.904L121.426 42.362L115.784 42.362L115.784 43.384L128.272 43.384L128.272 42.362L122.56 42.362L122.56 38.904L126.984 38.904L126.984 37.882L122.56 37.882L122.56 34.802L127.558 34.802L127.558 33.78L123.008 33.78L123.68 33.29C123.12 32.632 121.986 31.68 121.09 31.036L120.236 31.61ZM131.464 34.13L134.32 34.13L134.32 35.194L131.464 35.194L131.464 34.13ZM131.464 32.338L134.32 32.338L134.32 33.388L131.464 33.388L131.464 32.338ZM130.512 31.568L130.512 35.964L135.3 35.964L135.3 31.568L130.512 31.568ZM138.73 35.32C138.632 38.946 138.352 40.738 135.412 41.662C135.594 41.83 135.832 42.152 135.916 42.362C139.108 41.298 139.514 39.268 139.612 35.32L138.73 35.32ZM139.22 40.136C140.102 40.766 141.18 41.69 141.712 42.278L142.356 41.634C141.796 41.06 140.69 40.178 139.836 39.576L139.22 40.136ZM130.736 38.512C130.666 40.542 130.4 42.222 129.462 43.314C129.686 43.426 130.078 43.692 130.232 43.832C130.75 43.16 131.086 42.348 131.296 41.368C132.556 43.23 134.614 43.552 137.596 43.552L142.104 43.552C142.16 43.286 142.328 42.866 142.482 42.656C141.67 42.684 138.24 42.684 137.61 42.684C135.93 42.67 134.53 42.586 133.438 42.138L133.438 40.136L135.762 40.136L135.762 39.324L133.438 39.324L133.438 37.826L136.014 37.826L136.014 37L129.686 37L129.686 37.826L132.528 37.826L132.528 41.606C132.108 41.27 131.758 40.836 131.492 40.276C131.562 39.744 131.604 39.17 131.632 38.568L130.736 38.512ZM136.56 33.836L136.56 39.73L137.442 39.73L137.442 34.634L140.774 34.634L140.774 39.674L141.698 39.674L141.698 33.836L139.066 33.836C139.234 33.444 139.416 32.954 139.598 32.478L142.37 32.478L142.37 31.624L135.986 31.624L135.986 32.478L138.534 32.478C138.408 32.94 138.254 33.444 138.1 33.836L136.56 33.836ZM149.636 35.852L149.636 38.274L146.402 38.274L146.402 35.852L149.636 35.852ZM150.658 35.852L154.004 35.852L154.004 38.274L150.658 38.274L150.658 35.852ZM151.372 33.15C150.966 33.738 150.434 34.382 149.916 34.858L146.206 34.858C146.752 34.326 147.256 33.752 147.718 33.15L151.372 33.15ZM147.956 30.938C146.976 32.828 145.268 34.522 143.546 35.586C143.742 35.81 144.036 36.342 144.134 36.566C144.554 36.286 144.974 35.964 145.38 35.614L145.38 41.606C145.38 43.244 146.066 43.622 148.292 43.622C148.796 43.622 153.15 43.622 153.71 43.622C155.796 43.622 156.23 42.992 156.482 40.808C156.174 40.752 155.74 40.584 155.46 40.416C155.306 42.264 155.082 42.656 153.696 42.656C152.744 42.656 148.964 42.656 148.222 42.656C146.682 42.656 146.402 42.46 146.402 41.62L146.402 39.282L154.004 39.282L154.004 39.912L155.054 39.912L155.054 34.858L151.19 34.858C151.848 34.186 152.492 33.374 152.968 32.632L152.282 32.142L152.072 32.212L148.362 32.212C148.558 31.904 148.74 31.596 148.908 31.288L147.956 30.938ZM161.634 42.922C163.37 42.922 164.938 41.424 164.938 38.82C164.938 36.468 163.874 34.942 161.914 34.942C161.06 34.942 160.22 35.418 159.52 36.006L159.576 34.648L159.576 31.596L158.288 31.596L158.288 42.74L159.31 42.74L159.422 41.956L159.478 41.956C160.136 42.558 160.934 42.922 161.634 42.922ZM161.424 41.844C160.92 41.844 160.234 41.648 159.576 41.06L159.576 37.056C160.29 36.384 160.962 36.02 161.592 36.02C163.048 36.02 163.608 37.14 163.608 38.834C163.608 40.71 162.684 41.844 161.424 41.844ZM168.284 42.922C168.634 42.922 168.844 42.866 169.026 42.81L168.844 41.83C168.704 41.858 168.648 41.858 168.578 41.858C168.382 41.858 168.228 41.704 168.228 41.312L168.228 31.596L166.94 31.596L166.94 41.228C166.94 42.306 167.332 42.922 168.284 42.922ZM173.142 42.922C174.178 42.922 174.934 42.376 175.648 41.55L175.69 41.55L175.788 42.74L176.852 42.74L176.852 35.138L175.578 35.138L175.578 40.528C174.85 41.424 174.304 41.816 173.52 41.816C172.512 41.816 172.092 41.214 172.092 39.8L172.092 35.138L170.804 35.138L170.804 39.954C170.804 41.9 171.532 42.922 173.142 42.922ZM182.494 42.922C183.516 42.922 184.328 42.586 184.986 42.152L184.538 41.298C183.964 41.676 183.376 41.9 182.634 41.9C181.192 41.9 180.198 40.864 180.114 39.24L185.238 39.24C185.266 39.044 185.294 38.792 185.294 38.512C185.294 36.342 184.202 34.942 182.256 34.942C180.52 34.942 178.854 36.468 178.854 38.946C178.854 41.452 180.464 42.922 182.494 42.922ZM180.1 38.33C180.254 36.818 181.206 35.964 182.284 35.964C183.474 35.964 184.174 36.79 184.174 38.33L180.1 38.33ZM186.526 39.31L190.11 39.31L190.11 38.33L186.526 38.33L186.526 39.31ZM193.512 42.74L194.842 42.74C195.01 38.722 195.444 36.328 197.852 33.248L197.852 32.478L191.426 32.478L191.426 33.57L196.41 33.57C194.394 36.37 193.694 38.848 193.512 42.74ZM202.402 42.922C204.348 42.922 205.594 41.158 205.594 37.574C205.594 34.018 204.348 32.296 202.402 32.296C200.442 32.296 199.21 34.018 199.21 37.574C199.21 41.158 200.442 42.922 202.402 42.922ZM202.402 41.886C201.24 41.886 200.442 40.584 200.442 37.574C200.442 34.578 201.24 33.304 202.402 33.304C203.564 33.304 204.362 34.578 204.362 37.574C204.362 40.584 203.564 41.886 202.402 41.886ZM210.172 42.922C212.118 42.922 213.364 41.158 213.364 37.574C213.364 34.018 212.118 32.296 210.172 32.296C208.212 32.296 206.98 34.018 206.98 37.574C206.98 41.158 208.212 42.922 210.172 42.922ZM210.172 41.886C209.01 41.886 208.212 40.584 208.212 37.574C208.212 34.578 209.01 33.304 210.172 33.304C211.334 33.304 212.132 34.578 212.132 37.574C212.132 40.584 211.334 41.886 210.172 41.886ZM217.55 35.936C218.11 35.936 218.614 35.53 218.614 34.9C218.614 34.256 218.11 33.836 217.55 33.836C216.99 33.836 216.486 34.256 216.486 34.9C216.486 35.53 216.99 35.936 217.55 35.936ZM217.55 42.796C218.11 42.796 218.614 42.376 218.614 41.746C218.614 41.102 218.11 40.696 217.55 40.696C216.99 40.696 216.486 41.102 216.486 41.746C216.486 42.376 216.99 42.796 217.55 42.796Z"></path></g><rect x="237" y="17" width="40" height="40" stroke="rgba(0, 0, 0, 1)" stroke-width="1"      fill="#1D4ED8" ></rect><g ><path     fill="#000000"  d="M116.236 87.61C117.09 88.24 118.07 89.136 118.63 89.78L112.442 89.78L112.442 90.802L117.426 90.802L117.426 93.882L113.086 93.882L113.086 94.904L117.426 94.904L117.426 98.362L111.784 98.362L111.784 99.384L124.272 99.384L124.272 98.362L118.56 98.362L118.56 94.904L122.984 94.904L122.984 93.882L118.56 93.882L118.56 90.802L123.558 90.802L123.558 89.78L119.008 89.78L119.68 89.29C119.12 88.632 117.986 87.68 117.09 87.036L116.236 87.61ZM127.464 90.13L130.32 90.13L130.32 91.194L127.464 91.194L127.464 90.13ZM127.464 88.338L130.32 88.338L130.32 89.388L127.464 89.388L127.464 88.338ZM126.512 87.568L126.512 91.964L131.3 91.964L131.3 87.568L126.512 87.568ZM134.73 91.32C134.632 94.946 134.352 96.738 131.412 97.662C131.594 97.83 131.832 98.152 131.916 98.362C135.108 97.298 135.514 95.268 135.612 91.32L134.73 91.32ZM135.22 96.136C136.102 96.766 137.18 97.69 137.712 98.278L138.356 97.634C137.796 97.06 136.69 96.178 135.836 95.576L135.22 96.136ZM126.736 94.512C126.666 96.542 126.4 98.222 125.462 99.314C125.686 99.426 126.078 99.692 126.232 99.832C126.75 99.16 127.086 98.348 127.296 97.368C128.556 99.23 130.614 99.552 133.596 99.552L138.104 99.552C138.16 99.286 138.328 98.866 138.482 98.656C137.67 98.684 134.24 98.684 133.61 98.684C131.93 98.67 130.53 98.586 129.438 98.138L129.438 96.136L131.762 96.136L131.762 95.324L129.438 95.324L129.438 93.826L132.014 93.826L132.014 93L125.686 93L125.686 93.826L128.528 93.826L128.528 97.606C128.108 97.27 127.758 96.836 127.492 96.276C127.562 95.744 127.604 95.17 127.632 94.568L126.736 94.512ZM132.56 89.836L132.56 95.73L133.442 95.73L133.442 90.634L136.774 90.634L136.774 95.674L137.698 95.674L137.698 89.836L135.066 89.836C135.234 89.444 135.416 88.954 135.598 88.478L138.37 88.478L138.37 87.624L131.986 87.624L131.986 88.478L134.534 88.478C134.408 88.94 134.254 89.444 134.1 89.836L132.56 89.836ZM145.636 91.852L145.636 94.274L142.402 94.274L142.402 91.852L145.636 91.852ZM146.658 91.852L150.004 91.852L150.004 94.274L146.658 94.274L146.658 91.852ZM147.372 89.15C146.966 89.738 146.434 90.382 145.916 90.858L142.206 90.858C142.752 90.326 143.256 89.752 143.718 89.15L147.372 89.15ZM143.956 86.938C142.976 88.828 141.268 90.522 139.546 91.586C139.742 91.81 140.036 92.342 140.134 92.566C140.554 92.286 140.974 91.964 141.38 91.614L141.38 97.606C141.38 99.244 142.066 99.622 144.292 99.622C144.796 99.622 149.15 99.622 149.71 99.622C151.796 99.622 152.23 98.992 152.482 96.808C152.174 96.752 151.74 96.584 151.46 96.416C151.306 98.264 151.082 98.656 149.696 98.656C148.744 98.656 144.964 98.656 144.222 98.656C142.682 98.656 142.402 98.46 142.402 97.62L142.402 95.282L150.004 95.282L150.004 95.912L151.054 95.912L151.054 90.858L147.19 90.858C147.848 90.186 148.492 89.374 148.968 88.632L148.282 88.142L148.072 88.212L144.362 88.212C144.558 87.904 144.74 87.596 144.908 87.288L143.956 86.938ZM153.644 95.31L157.228 95.31L157.228 94.33L153.644 94.33L153.644 95.31ZM162.618 91.026L165.096 91.026L165.096 92.146L162.618 92.146L162.618 91.026ZM162.618 89.192L165.096 89.192L165.096 90.284L162.618 90.284L162.618 89.192ZM158.754 87.736C159.454 88.24 160.28 88.996 160.7 89.514L161.344 88.828C160.924 88.324 160.056 87.624 159.356 87.134L158.754 87.736ZM158.348 91.614C159.02 92.048 159.874 92.692 160.28 93.112L160.91 92.398C160.476 91.978 159.608 91.362 158.936 90.97L158.348 91.614ZM158.502 99.104L159.356 99.65C159.93 98.39 160.616 96.696 161.106 95.268L160.364 94.736C159.818 96.262 159.048 98.04 158.502 99.104ZM167.546 86.966C167.294 89.15 166.818 91.264 166.006 92.692L166.006 88.408L164.074 88.408L164.564 87.12L163.472 86.966C163.402 87.386 163.234 87.946 163.094 88.408L161.75 88.408L161.75 92.93L165.908 92.93C166.118 93.098 166.454 93.462 166.594 93.616C166.818 93.252 167.028 92.832 167.224 92.384C167.434 93.714 167.77 95.142 168.33 96.458C167.756 97.592 167 98.516 165.964 99.23C166.174 99.384 166.538 99.72 166.664 99.874C167.546 99.188 168.246 98.39 168.792 97.438C169.296 98.362 169.94 99.202 170.766 99.846C170.906 99.594 171.242 99.188 171.438 99.006C170.528 98.362 169.828 97.466 169.296 96.444C169.996 94.862 170.402 92.93 170.654 90.634L171.298 90.634L171.298 89.668L168.05 89.668C168.232 88.856 168.386 87.988 168.498 87.12L167.546 86.966ZM162.982 93.224L163.318 93.994L161.176 93.994L161.176 94.876L162.562 94.876L162.562 95.38C162.562 96.402 162.366 98.04 160.63 99.258C160.868 99.426 161.19 99.692 161.358 99.874C162.688 98.908 163.192 97.704 163.36 96.626L164.984 96.626C164.914 97.998 164.83 98.544 164.69 98.698C164.606 98.796 164.508 98.824 164.326 98.824C164.158 98.824 163.696 98.81 163.192 98.768C163.332 98.992 163.416 99.356 163.444 99.636C163.962 99.664 164.494 99.65 164.774 99.636C165.082 99.608 165.306 99.524 165.502 99.3C165.754 98.992 165.838 98.194 165.936 96.15C165.95 96.024 165.95 95.758 165.95 95.758L163.458 95.758L163.458 95.408L163.458 94.876L166.426 94.876L166.426 93.994L164.326 93.994C164.2 93.672 164.032 93.294 163.864 93L162.982 93.224ZM169.744 90.634C169.562 92.426 169.282 93.994 168.806 95.324C168.246 93.868 167.938 92.272 167.756 90.816L167.812 90.634L169.744 90.634ZM173.132 87.904C173.986 88.366 175.162 89.038 175.75 89.472L176.366 88.604C175.764 88.212 174.574 87.568 173.72 87.162L173.132 87.904ZM172.446 91.754C173.3 92.216 174.462 92.888 175.036 93.28L175.624 92.412C175.022 92.02 173.846 91.39 173.02 90.984L172.446 91.754ZM172.768 98.964L173.664 99.678C174.49 98.376 175.47 96.626 176.212 95.142L175.442 94.456C174.63 96.038 173.524 97.886 172.768 98.964ZM176.338 91.082L176.338 92.09L180.384 92.09L180.384 94.414L177.346 94.414L177.346 99.846L178.326 99.846L178.326 99.244L183.324 99.244L183.324 99.776L184.332 99.776L184.332 94.414L181.378 94.414L181.378 92.09L185.256 92.09L185.256 91.082L181.378 91.082L181.378 88.632C182.596 88.422 183.73 88.156 184.654 87.848L183.814 87.036C182.26 87.582 179.418 88.03 176.996 88.282C177.108 88.52 177.248 88.926 177.304 89.178C178.298 89.08 179.348 88.954 180.384 88.8L180.384 91.082L176.338 91.082ZM178.326 98.292L178.326 95.38L183.324 95.38L183.324 98.292L178.326 98.292ZM186.502 95.31L190.086 95.31L190.086 94.33L186.502 94.33L186.502 95.31ZM194.636 98.922C196.554 98.922 197.842 97.76 197.842 96.276C197.842 94.862 197.016 94.092 196.12 93.574L196.12 93.504C196.722 93.028 197.478 92.104 197.478 91.026C197.478 89.444 196.414 88.324 194.664 88.324C193.068 88.324 191.85 89.374 191.85 90.928C191.85 92.006 192.494 92.776 193.236 93.294L193.236 93.35C192.298 93.854 191.36 94.82 191.36 96.192C191.36 97.774 192.732 98.922 194.636 98.922ZM195.336 93.168C194.118 92.692 193.012 92.146 193.012 90.928C193.012 89.934 193.698 89.276 194.65 89.276C195.742 89.276 196.386 90.074 196.386 91.096C196.386 91.852 196.022 92.552 195.336 93.168ZM194.65 97.97C193.418 97.97 192.494 97.172 192.494 96.08C192.494 95.1 193.082 94.288 193.908 93.756C195.364 94.344 196.624 94.848 196.624 96.234C196.624 97.256 195.84 97.97 194.65 97.97ZM202.378 98.922C204.324 98.922 205.57 97.158 205.57 93.574C205.57 90.018 204.324 88.296 202.378 88.296C200.418 88.296 199.186 90.018 199.186 93.574C199.186 97.158 200.418 98.922 202.378 98.922ZM202.378 97.886C201.216 97.886 200.418 96.584 200.418 93.574C200.418 90.578 201.216 89.304 202.378 89.304C203.54 89.304 204.338 90.578 204.338 93.574C204.338 96.584 203.54 97.886 202.378 97.886ZM210.148 98.922C212.094 98.922 213.34 97.158 213.34 93.574C213.34 90.018 212.094 88.296 210.148 88.296C208.188 88.296 206.956 90.018 206.956 93.574C206.956 97.158 208.188 98.922 210.148 98.922ZM210.148 97.886C208.986 97.886 208.188 96.584 208.188 93.574C208.188 90.578 208.986 89.304 210.148 89.304C211.31 89.304 212.108 90.578 212.108 93.574C212.108 96.584 211.31 97.886 210.148 97.886ZM217.526 91.936C218.086 91.936 218.59 91.53 218.59 90.9C218.59 90.256 218.086 89.836 217.526 89.836C216.966 89.836 216.462 90.256 216.462 90.9C216.462 91.53 216.966 91.936 217.526 91.936ZM217.526 98.796C218.086 98.796 218.59 98.376 218.59 97.746C218.59 97.102 218.086 96.696 217.526 96.696C216.966 96.696 216.462 97.102 216.462 97.746C216.462 98.376 216.966 98.796 217.526 98.796Z"></path></g><rect x="237" y="73" width="40" height="40" stroke="rgba(0, 0, 0, 1)" stroke-width="1"      fill="#1E40AF" ></rect><g ><path     fill="#000000"  d="M122.44 149.658L122.44 150.54L116.966 150.54L116.966 151.548L122.44 151.548L122.44 154.544C122.44 154.74 122.37 154.81 122.118 154.824C121.866 154.824 120.956 154.824 120.018 154.796C120.2 155.076 120.396 155.552 120.466 155.846C121.656 155.846 122.398 155.832 122.888 155.678C123.392 155.496 123.546 155.188 123.546 154.572L123.546 151.548L129.02 151.548L129.02 150.54L123.546 150.54L123.546 150.022C124.778 149.364 126.038 148.412 126.906 147.516L126.192 146.97L125.954 147.026L119.262 147.026L119.262 148.02L124.89 148.02C124.176 148.636 123.266 149.252 122.44 149.658ZM121.936 143.204C122.202 143.568 122.468 144.03 122.65 144.436L117.12 144.436L117.12 147.334L118.156 147.334L118.156 145.444L127.802 145.444L127.802 147.334L128.88 147.334L128.88 144.436L123.882 144.436C123.686 143.974 123.322 143.344 122.958 142.882L121.936 143.204ZM133.514 143.036C132.814 145.15 131.666 147.25 130.42 148.622C130.63 148.86 130.938 149.42 131.036 149.658C131.456 149.182 131.862 148.636 132.24 148.034L132.24 155.832L133.248 155.832L133.248 146.27C133.724 145.318 134.144 144.31 134.494 143.316L133.514 143.036ZM135.824 152.29L135.824 153.256L138.134 153.256L138.134 155.776L139.156 155.776L139.156 153.256L141.41 153.256L141.41 152.29L139.156 152.29L139.156 147.446C140.024 149.882 141.368 152.234 142.824 153.564C143.02 153.284 143.37 152.92 143.622 152.738C142.11 151.52 140.654 149.168 139.828 146.816L143.356 146.816L143.356 145.808L139.156 145.808L139.156 143.022L138.134 143.022L138.134 145.808L134.172 145.808L134.172 146.816L137.504 146.816C136.636 149.196 135.166 151.576 133.626 152.808C133.864 152.99 134.214 153.354 134.382 153.606C135.866 152.262 137.238 149.952 138.134 147.488L138.134 152.29L135.824 152.29ZM150.636 147.852L150.636 150.274L147.402 150.274L147.402 147.852L150.636 147.852ZM151.658 147.852L155.004 147.852L155.004 150.274L151.658 150.274L151.658 147.852ZM152.372 145.15C151.966 145.738 151.434 146.382 150.916 146.858L147.206 146.858C147.752 146.326 148.256 145.752 148.718 145.15L152.372 145.15ZM148.956 142.938C147.976 144.828 146.268 146.522 144.546 147.586C144.742 147.81 145.036 148.342 145.134 148.566C145.554 148.286 145.974 147.964 146.38 147.614L146.38 153.606C146.38 155.244 147.066 155.622 149.292 155.622C149.796 155.622 154.15 155.622 154.71 155.622C156.796 155.622 157.23 154.992 157.482 152.808C157.174 152.752 156.74 152.584 156.46 152.416C156.306 154.264 156.082 154.656 154.696 154.656C153.744 154.656 149.964 154.656 149.222 154.656C147.682 154.656 147.402 154.46 147.402 153.62L147.402 151.282L155.004 151.282L155.004 151.912L156.054 151.912L156.054 146.858L152.19 146.858C152.848 146.186 153.492 145.374 153.968 144.632L153.282 144.142L153.072 144.212L149.362 144.212C149.558 143.904 149.74 143.596 149.908 143.288L148.956 142.938ZM161.85 158.24C164.202 158.24 165.7 157.022 165.7 155.608C165.7 154.348 164.804 153.802 163.054 153.802L161.556 153.802C160.534 153.802 160.226 153.452 160.226 152.976C160.226 152.556 160.436 152.304 160.716 152.066C161.052 152.234 161.472 152.332 161.836 152.332C163.404 152.332 164.622 151.31 164.622 149.686C164.622 149.028 164.37 148.468 164.006 148.118L165.56 148.118L165.56 147.138L162.914 147.138C162.648 147.026 162.27 146.942 161.836 146.942C160.31 146.942 158.994 147.992 158.994 149.658C158.994 150.568 159.484 151.31 159.988 151.702L159.988 151.758C159.582 152.038 159.148 152.542 159.148 153.172C159.148 153.774 159.442 154.18 159.834 154.418L159.834 154.488C159.12 154.922 158.714 155.552 158.714 156.21C158.714 157.512 160.002 158.24 161.85 158.24ZM161.836 151.464C160.968 151.464 160.226 150.764 160.226 149.658C160.226 148.538 160.954 147.88 161.836 147.88C162.746 147.88 163.46 148.538 163.46 149.658C163.46 150.764 162.718 151.464 161.836 151.464ZM162.032 157.358C160.646 157.358 159.834 156.84 159.834 156.028C159.834 155.594 160.058 155.132 160.604 154.74C160.94 154.824 161.304 154.852 161.584 154.852L162.9 154.852C163.908 154.852 164.44 155.104 164.44 155.818C164.44 156.602 163.502 157.358 162.032 157.358ZM167.184 154.74L168.472 154.74L168.472 149.854C168.976 148.566 169.746 148.09 170.376 148.09C170.698 148.09 170.866 148.132 171.118 148.216L171.356 147.11C171.118 146.984 170.88 146.942 170.544 146.942C169.704 146.942 168.92 147.558 168.388 148.524L168.36 148.524L168.234 147.138L167.184 147.138L167.184 154.74ZM174.366 154.922C175.304 154.922 176.158 154.432 176.886 153.83L176.928 153.83L177.04 154.74L178.09 154.74L178.09 150.064C178.09 148.174 177.32 146.942 175.458 146.942C174.226 146.942 173.162 147.488 172.476 147.936L172.966 148.818C173.568 148.412 174.366 148.006 175.248 148.006C176.494 148.006 176.816 148.944 176.816 149.924C173.582 150.288 172.154 151.114 172.154 152.766C172.154 154.138 173.092 154.922 174.366 154.922ZM174.73 153.886C173.974 153.886 173.386 153.55 173.386 152.682C173.386 151.702 174.254 151.072 176.816 150.778L176.816 152.892C176.074 153.55 175.458 153.886 174.73 153.886ZM180.624 158.016C182.136 158.016 182.934 156.868 183.466 155.384L186.322 147.138L185.076 147.138L183.704 151.352C183.508 152.038 183.284 152.808 183.088 153.508L183.018 153.508C182.752 152.794 182.5 152.024 182.262 151.352L180.722 147.138L179.392 147.138L182.444 154.754L182.276 155.328C181.954 156.266 181.422 156.966 180.568 156.966C180.358 156.966 180.134 156.896 179.98 156.84L179.728 157.862C179.966 157.96 180.274 158.016 180.624 158.016ZM187.148 151.31L190.732 151.31L190.732 150.33L187.148 150.33L187.148 151.31ZM194.134 154.74L195.464 154.74C195.632 150.722 196.066 148.328 198.474 145.248L198.474 144.478L192.048 144.478L192.048 145.57L197.032 145.57C195.016 148.37 194.316 150.848 194.134 154.74ZM203.024 154.922C204.97 154.922 206.216 153.158 206.216 149.574C206.216 146.018 204.97 144.296 203.024 144.296C201.064 144.296 199.832 146.018 199.832 149.574C199.832 153.158 201.064 154.922 203.024 154.922ZM203.024 153.886C201.862 153.886 201.064 152.584 201.064 149.574C201.064 146.578 201.862 145.304 203.024 145.304C204.186 145.304 204.984 146.578 204.984 149.574C204.984 152.584 204.186 153.886 203.024 153.886ZM210.794 154.922C212.74 154.922 213.986 153.158 213.986 149.574C213.986 146.018 212.74 144.296 210.794 144.296C208.834 144.296 207.602 146.018 207.602 149.574C207.602 153.158 208.834 154.922 210.794 154.922ZM210.794 153.886C209.632 153.886 208.834 152.584 208.834 149.574C208.834 146.578 209.632 145.304 210.794 145.304C211.956 145.304 212.754 146.578 212.754 149.574C212.754 152.584 211.956 153.886 210.794 153.886ZM218.172 147.936C218.732 147.936 219.236 147.53 219.236 146.9C219.236 146.256 218.732 145.836 218.172 145.836C217.612 145.836 217.108 146.256 217.108 146.9C217.108 147.53 217.612 147.936 218.172 147.936ZM218.172 154.796C218.732 154.796 219.236 154.376 219.236 153.746C219.236 153.102 218.732 152.696 218.172 152.696C217.612 152.696 217.108 153.102 217.108 153.746C217.108 154.376 217.612 154.796 218.172 154.796Z"></path></g><rect x="237" y="129" width="40" height="40" stroke="rgba(0, 0, 0, 1)" stroke-width="1"      fill="#374151" ></rect><g ><path     fill="#000000"  d="M89.44 205.658L89.44 206.54L83.966 206.54L83.966 207.548L89.44 207.548L89.44 210.544C89.44 210.74 89.37 210.81 89.118 210.824C88.866 210.824 87.956 210.824 87.018 210.796C87.2 211.076 87.396 211.552 87.466 211.846C88.656 211.846 89.398 211.832 89.888 211.678C90.392 211.496 90.546 211.188 90.546 210.572L90.546 207.548L96.02 207.548L96.02 206.54L90.546 206.54L90.546 206.022C91.778 205.364 93.038 204.412 93.906 203.516L93.192 202.97L92.954 203.026L86.262 203.026L86.262 204.02L91.89 204.02C91.176 204.636 90.266 205.252 89.44 205.658ZM88.936 199.204C89.202 199.568 89.468 200.03 89.65 200.436L84.12 200.436L84.12 203.334L85.156 203.334L85.156 201.444L94.802 201.444L94.802 203.334L95.88 203.334L95.88 200.436L90.882 200.436C90.686 199.974 90.322 199.344 89.958 198.882L88.936 199.204ZM100.514 199.036C99.814 201.15 98.666 203.25 97.42 204.622C97.63 204.86 97.938 205.42 98.036 205.658C98.456 205.182 98.862 204.636 99.24 204.034L99.24 211.832L100.248 211.832L100.248 202.27C100.724 201.318 101.144 200.31 101.494 199.316L100.514 199.036ZM102.824 208.29L102.824 209.256L105.134 209.256L105.134 211.776L106.156 211.776L106.156 209.256L108.41 209.256L108.41 208.29L106.156 208.29L106.156 203.446C107.024 205.882 108.368 208.234 109.824 209.564C110.02 209.284 110.37 208.92 110.622 208.738C109.11 207.52 107.654 205.168 106.828 202.816L110.356 202.816L110.356 201.808L106.156 201.808L106.156 199.022L105.134 199.022L105.134 201.808L101.172 201.808L101.172 202.816L104.504 202.816C103.636 205.196 102.166 207.576 100.626 208.808C100.864 208.99 101.214 209.354 101.382 209.606C102.866 208.262 104.238 205.952 105.134 203.488L105.134 208.29L102.824 208.29ZM117.636 203.852L117.636 206.274L114.402 206.274L114.402 203.852L117.636 203.852ZM118.658 203.852L122.004 203.852L122.004 206.274L118.658 206.274L118.658 203.852ZM119.372 201.15C118.966 201.738 118.434 202.382 117.916 202.858L114.206 202.858C114.752 202.326 115.256 201.752 115.718 201.15L119.372 201.15ZM115.956 198.938C114.976 200.828 113.268 202.522 111.546 203.586C111.742 203.81 112.036 204.342 112.134 204.566C112.554 204.286 112.974 203.964 113.38 203.614L113.38 209.606C113.38 211.244 114.066 211.622 116.292 211.622C116.796 211.622 121.15 211.622 121.71 211.622C123.796 211.622 124.23 210.992 124.482 208.808C124.174 208.752 123.74 208.584 123.46 208.416C123.306 210.264 123.082 210.656 121.696 210.656C120.744 210.656 116.964 210.656 116.222 210.656C114.682 210.656 114.402 210.46 114.402 209.62L114.402 207.282L122.004 207.282L122.004 207.912L123.054 207.912L123.054 202.858L119.19 202.858C119.848 202.186 120.492 201.374 120.968 200.632L120.282 200.142L120.072 200.212L116.362 200.212C116.558 199.904 116.74 199.596 116.908 199.288L115.956 198.938ZM125.644 207.31L129.228 207.31L129.228 206.33L125.644 206.33L125.644 207.31ZM134.618 203.026L137.096 203.026L137.096 204.146L134.618 204.146L134.618 203.026ZM134.618 201.192L137.096 201.192L137.096 202.284L134.618 202.284L134.618 201.192ZM130.754 199.736C131.454 200.24 132.28 200.996 132.7 201.514L133.344 200.828C132.924 200.324 132.056 199.624 131.356 199.134L130.754 199.736ZM130.348 203.614C131.02 204.048 131.874 204.692 132.28 205.112L132.91 204.398C132.476 203.978 131.608 203.362 130.936 202.97L130.348 203.614ZM130.502 211.104L131.356 211.65C131.93 210.39 132.616 208.696 133.106 207.268L132.364 206.736C131.818 208.262 131.048 210.04 130.502 211.104ZM139.546 198.966C139.294 201.15 138.818 203.264 138.006 204.692L138.006 200.408L136.074 200.408L136.564 199.12L135.472 198.966C135.402 199.386 135.234 199.946 135.094 200.408L133.75 200.408L133.75 204.93L137.908 204.93C138.118 205.098 138.454 205.462 138.594 205.616C138.818 205.252 139.028 204.832 139.224 204.384C139.434 205.714 139.77 207.142 140.33 208.458C139.756 209.592 139 210.516 137.964 211.23C138.174 211.384 138.538 211.72 138.664 211.874C139.546 211.188 140.246 210.39 140.792 209.438C141.296 210.362 141.94 211.202 142.766 211.846C142.906 211.594 143.242 211.188 143.438 211.006C142.528 210.362 141.828 209.466 141.296 208.444C141.996 206.862 142.402 204.93 142.654 202.634L143.298 202.634L143.298 201.668L140.05 201.668C140.232 200.856 140.386 199.988 140.498 199.12L139.546 198.966ZM134.982 205.224L135.318 205.994L133.176 205.994L133.176 206.876L134.562 206.876L134.562 207.38C134.562 208.402 134.366 210.04 132.63 211.258C132.868 211.426 133.19 211.692 133.358 211.874C134.688 210.908 135.192 209.704 135.36 208.626L136.984 208.626C136.914 209.998 136.83 210.544 136.69 210.698C136.606 210.796 136.508 210.824 136.326 210.824C136.158 210.824 135.696 210.81 135.192 210.768C135.332 210.992 135.416 211.356 135.444 211.636C135.962 211.664 136.494 211.65 136.774 211.636C137.082 211.608 137.306 211.524 137.502 211.3C137.754 210.992 137.838 210.194 137.936 208.15C137.95 208.024 137.95 207.758 137.95 207.758L135.458 207.758L135.458 207.408L135.458 206.876L138.426 206.876L138.426 205.994L136.326 205.994C136.2 205.672 136.032 205.294 135.864 205L134.982 205.224ZM141.744 202.634C141.562 204.426 141.282 205.994 140.806 207.324C140.246 205.868 139.938 204.272 139.756 202.816L139.812 202.634L141.744 202.634ZM145.132 199.904C145.986 200.366 147.162 201.038 147.75 201.472L148.366 200.604C147.764 200.212 146.574 199.568 145.72 199.162L145.132 199.904ZM144.446 203.754C145.3 204.216 146.462 204.888 147.036 205.28L147.624 204.412C147.022 204.02 145.846 203.39 145.02 202.984L144.446 203.754ZM144.768 210.964L145.664 211.678C146.49 210.376 147.47 208.626 148.212 207.142L147.442 206.456C146.63 208.038 145.524 209.886 144.768 210.964ZM148.338 203.082L148.338 204.09L152.384 204.09L152.384 206.414L149.346 206.414L149.346 211.846L150.326 211.846L150.326 211.244L155.324 211.244L155.324 211.776L156.332 211.776L156.332 206.414L153.378 206.414L153.378 204.09L157.256 204.09L157.256 203.082L153.378 203.082L153.378 200.632C154.596 200.422 155.73 200.156 156.654 199.848L155.814 199.036C154.26 199.582 151.418 200.03 148.996 200.282C149.108 200.52 149.248 200.926 149.304 201.178C150.298 201.08 151.348 200.954 152.384 200.8L152.384 203.082L148.338 203.082ZM150.326 210.292L150.326 207.38L155.324 207.38L155.324 210.292L150.326 210.292ZM161.708 214.24C164.06 214.24 165.558 213.022 165.558 211.608C165.558 210.348 164.662 209.802 162.912 209.802L161.414 209.802C160.392 209.802 160.084 209.452 160.084 208.976C160.084 208.556 160.294 208.304 160.574 208.066C160.91 208.234 161.33 208.332 161.694 208.332C163.262 208.332 164.48 207.31 164.48 205.686C164.48 205.028 164.228 204.468 163.864 204.118L165.418 204.118L165.418 203.138L162.772 203.138C162.506 203.026 162.128 202.942 161.694 202.942C160.168 202.942 158.852 203.992 158.852 205.658C158.852 206.568 159.342 207.31 159.846 207.702L159.846 207.758C159.44 208.038 159.006 208.542 159.006 209.172C159.006 209.774 159.3 210.18 159.692 210.418L159.692 210.488C158.978 210.922 158.572 211.552 158.572 212.21C158.572 213.512 159.86 214.24 161.708 214.24ZM161.694 207.464C160.826 207.464 160.084 206.764 160.084 205.658C160.084 204.538 160.812 203.88 161.694 203.88C162.604 203.88 163.318 204.538 163.318 205.658C163.318 206.764 162.576 207.464 161.694 207.464ZM161.89 213.358C160.504 213.358 159.692 212.84 159.692 212.028C159.692 211.594 159.916 211.132 160.462 210.74C160.798 210.824 161.162 210.852 161.442 210.852L162.758 210.852C163.766 210.852 164.298 211.104 164.298 211.818C164.298 212.602 163.36 213.358 161.89 213.358ZM167.042 210.74L168.33 210.74L168.33 205.854C168.834 204.566 169.604 204.09 170.234 204.09C170.556 204.09 170.724 204.132 170.976 204.216L171.214 203.11C170.976 202.984 170.738 202.942 170.402 202.942C169.562 202.942 168.778 203.558 168.246 204.524L168.218 204.524L168.092 203.138L167.042 203.138L167.042 210.74ZM174.224 210.922C175.162 210.922 176.016 210.432 176.744 209.83L176.786 209.83L176.898 210.74L177.948 210.74L177.948 206.064C177.948 204.174 177.178 202.942 175.316 202.942C174.084 202.942 173.02 203.488 172.334 203.936L172.824 204.818C173.426 204.412 174.224 204.006 175.106 204.006C176.352 204.006 176.674 204.944 176.674 205.924C173.44 206.288 172.012 207.114 172.012 208.766C172.012 210.138 172.95 210.922 174.224 210.922ZM174.588 209.886C173.832 209.886 173.244 209.55 173.244 208.682C173.244 207.702 174.112 207.072 176.674 206.778L176.674 208.892C175.932 209.55 175.316 209.886 174.588 209.886ZM180.482 214.016C181.994 214.016 182.792 212.868 183.324 211.384L186.18 203.138L184.934 203.138L183.562 207.352C183.366 208.038 183.142 208.808 182.946 209.508L182.876 209.508C182.61 208.794 182.358 208.024 182.12 207.352L180.58 203.138L179.25 203.138L182.302 210.754L182.134 211.328C181.812 212.266 181.28 212.966 180.426 212.966C180.216 212.966 179.992 212.896 179.838 212.84L179.586 213.862C179.824 213.96 180.132 214.016 180.482 214.016ZM187.006 207.31L190.59 207.31L190.59 206.33L187.006 206.33L187.006 207.31ZM194.51 210.922C196.428 210.922 198.234 209.326 198.234 205.168C198.234 201.906 196.75 200.296 194.776 200.296C193.18 200.296 191.836 201.626 191.836 203.628C191.836 205.742 192.956 206.848 194.664 206.848C195.518 206.848 196.4 206.358 197.03 205.602C196.932 208.78 195.784 209.858 194.468 209.858C193.796 209.858 193.18 209.564 192.732 209.074L192.032 209.872C192.606 210.474 193.39 210.922 194.51 210.922ZM197.016 204.524C196.33 205.504 195.56 205.896 194.874 205.896C193.656 205.896 193.04 205 193.04 203.628C193.04 202.214 193.796 201.29 194.79 201.29C196.092 201.29 196.876 202.41 197.016 204.524ZM202.882 210.922C204.828 210.922 206.074 209.158 206.074 205.574C206.074 202.018 204.828 200.296 202.882 200.296C200.922 200.296 199.69 202.018 199.69 205.574C199.69 209.158 200.922 210.922 202.882 210.922ZM202.882 209.886C201.72 209.886 200.922 208.584 200.922 205.574C200.922 202.578 201.72 201.304 202.882 201.304C204.044 201.304 204.842 202.578 204.842 205.574C204.842 208.584 204.044 209.886 202.882 209.886ZM210.652 210.922C212.598 210.922 213.844 209.158 213.844 205.574C213.844 202.018 212.598 200.296 210.652 200.296C208.692 200.296 207.46 202.018 207.46 205.574C207.46 209.158 208.692 210.922 210.652 210.922ZM210.652 209.886C209.49 209.886 208.692 208.584 208.692 205.574C208.692 202.578 209.49 201.304 210.652 201.304C211.814 201.304 212.612 202.578 212.612 205.574C212.612 208.584 211.814 209.886 210.652 209.886ZM218.03 203.936C218.59 203.936 219.094 203.53 219.094 202.9C219.094 202.256 218.59 201.836 218.03 201.836C217.47 201.836 216.966 202.256 216.966 202.9C216.966 203.53 217.47 203.936 218.03 203.936ZM218.03 210.796C218.59 210.796 219.094 210.376 219.094 209.746C219.094 209.102 218.59 208.696 218.03 208.696C217.47 208.696 216.966 209.102 216.966 209.746C216.966 210.376 217.47 210.796 218.03 210.796Z"></path></g><rect x="237" y="185" width="40" height="40" stroke="rgba(0, 0, 0, 1)" stroke-width="1"      fill="#111827" ></rect><g ><path     fill="#000000"  d="M77.528 263.408L76.632 263.772C77.108 264.584 77.696 265.228 78.382 265.746C77.528 266.236 76.324 266.642 74.658 266.95C74.882 267.188 75.162 267.636 75.288 267.874C77.108 267.482 78.41 266.964 79.348 266.348C81.28 267.37 83.856 267.692 87.118 267.818C87.174 267.468 87.37 267.02 87.566 266.782C84.43 266.698 82.008 266.488 80.202 265.676C80.93 264.962 81.308 264.15 81.476 263.282L86.222 263.282L86.222 257.864L81.63 257.864L81.63 256.674L87.09 256.674L87.09 255.722L74.91 255.722L74.91 256.674L80.538 256.674L80.538 257.864L76.184 257.864L76.184 263.282L80.37 263.282C80.202 263.954 79.88 264.584 79.236 265.144C78.564 264.696 77.99 264.136 77.528 263.408ZM77.192 260.986L80.538 260.986L80.538 261.546C80.538 261.84 80.538 262.134 80.51 262.414L77.192 262.414L77.192 260.986ZM81.602 262.414C81.616 262.134 81.63 261.854 81.63 261.56L81.63 260.986L85.172 260.986L85.172 262.414L81.602 262.414ZM77.192 258.746L80.538 258.746L80.538 260.146L77.192 260.146L77.192 258.746ZM81.63 258.746L85.172 258.746L85.172 260.146L81.63 260.146L81.63 258.746ZM96.96 255.82C97.688 256.296 98.584 256.982 99.018 257.444L99.662 256.758C99.2 256.296 98.29 255.652 97.576 255.204L96.96 255.82ZM89.288 255.82C90.142 256.268 91.164 256.982 91.654 257.5L92.284 256.716C91.78 256.212 90.73 255.54 89.89 255.12L89.288 255.82ZM88.532 259.628C89.4 260.048 90.436 260.72 90.954 261.21L91.57 260.398C91.052 259.922 89.974 259.278 89.12 258.9L88.532 259.628ZM88.882 267.034L89.806 267.65C90.52 266.334 91.332 264.57 91.962 263.072L91.136 262.456C90.45 264.066 89.54 265.942 88.882 267.034ZM100.278 261.77C99.578 262.736 98.626 263.604 97.506 264.332C97.212 263.632 96.96 262.778 96.764 261.84L101.3 261.238L101.146 260.3L96.568 260.874C96.47 260.286 96.372 259.642 96.302 258.984L100.754 258.452L100.614 257.5L96.218 258.018C96.134 257.052 96.106 256.044 96.106 255.008L95.028 255.008C95.042 256.072 95.084 257.122 95.168 258.13L92.452 258.452L92.592 259.432L95.252 259.11C95.322 259.768 95.42 260.398 95.518 261.014L92.2 261.434L92.354 262.414L95.7 261.98C95.924 263.072 96.218 264.066 96.568 264.906C95.238 265.648 93.726 266.236 92.158 266.642C92.41 266.894 92.676 267.286 92.816 267.552C94.3 267.118 95.714 266.53 97.002 265.802C97.716 267.104 98.612 267.874 99.718 267.874C100.81 267.874 101.202 267.202 101.398 264.864C101.132 264.766 100.74 264.542 100.516 264.304C100.418 266.138 100.222 266.824 99.774 266.824C99.088 266.824 98.458 266.25 97.926 265.242C99.228 264.402 100.348 263.394 101.174 262.246L100.278 261.77ZM109.728 260.818C110.498 261.84 111.45 263.24 111.87 264.094L112.766 263.534C112.304 262.708 111.338 261.35 110.54 260.356L109.728 260.818ZM105.36 254.952C105.248 255.624 105.01 256.548 104.786 257.234L103.218 257.234L103.218 267.496L104.184 267.496L104.184 266.39L108.09 266.39L108.09 257.234L105.752 257.234C105.99 256.632 106.256 255.848 106.494 255.148L105.36 254.952ZM104.184 258.172L107.124 258.172L107.124 261.126L104.184 261.126L104.184 258.172ZM104.184 265.438L104.184 262.05L107.124 262.05L107.124 265.438L104.184 265.438ZM110.372 254.924C109.924 256.856 109.168 258.788 108.202 260.034C108.454 260.174 108.888 260.468 109.084 260.636C109.56 259.964 110.008 259.11 110.4 258.158L113.984 258.158C113.816 263.772 113.592 265.928 113.144 266.404C112.976 266.6 112.822 266.642 112.542 266.642C112.22 266.642 111.38 266.628 110.456 266.558C110.652 266.824 110.778 267.272 110.806 267.566C111.59 267.608 112.416 267.636 112.892 267.594C113.396 267.538 113.704 267.426 114.026 267.006C114.586 266.32 114.782 264.15 114.992 257.724C115.006 257.584 115.006 257.192 115.006 257.192L110.778 257.192C111.002 256.534 111.212 255.834 111.38 255.148L110.372 254.924ZM122.44 261.658L122.44 262.54L116.966 262.54L116.966 263.548L122.44 263.548L122.44 266.544C122.44 266.74 122.37 266.81 122.118 266.824C121.866 266.824 120.956 266.824 120.018 266.796C120.2 267.076 120.396 267.552 120.466 267.846C121.656 267.846 122.398 267.832 122.888 267.678C123.392 267.496 123.546 267.188 123.546 266.572L123.546 263.548L129.02 263.548L129.02 262.54L123.546 262.54L123.546 262.022C124.778 261.364 126.038 260.412 126.906 259.516L126.192 258.97L125.954 259.026L119.262 259.026L119.262 260.02L124.89 260.02C124.176 260.636 123.266 261.252 122.44 261.658ZM121.936 255.204C122.202 255.568 122.468 256.03 122.65 256.436L117.12 256.436L117.12 259.334L118.156 259.334L118.156 257.444L127.802 257.444L127.802 259.334L128.88 259.334L128.88 256.436L123.882 256.436C123.686 255.974 123.322 255.344 122.958 254.882L121.936 255.204ZM133.514 255.036C132.814 257.15 131.666 259.25 130.42 260.622C130.63 260.86 130.938 261.42 131.036 261.658C131.456 261.182 131.862 260.636 132.24 260.034L132.24 267.832L133.248 267.832L133.248 258.27C133.724 257.318 134.144 256.31 134.494 255.316L133.514 255.036ZM135.824 264.29L135.824 265.256L138.134 265.256L138.134 267.776L139.156 267.776L139.156 265.256L141.41 265.256L141.41 264.29L139.156 264.29L139.156 259.446C140.024 261.882 141.368 264.234 142.824 265.564C143.02 265.284 143.37 264.92 143.622 264.738C142.11 263.52 140.654 261.168 139.828 258.816L143.356 258.816L143.356 257.808L139.156 257.808L139.156 255.022L138.134 255.022L138.134 257.808L134.172 257.808L134.172 258.816L137.504 258.816C136.636 261.196 135.166 263.576 133.626 264.808C133.864 264.99 134.214 265.354 134.382 265.606C135.866 264.262 137.238 261.952 138.134 259.488L138.134 264.29L135.824 264.29ZM150.636 259.852L150.636 262.274L147.402 262.274L147.402 259.852L150.636 259.852ZM151.658 259.852L155.004 259.852L155.004 262.274L151.658 262.274L151.658 259.852ZM152.372 257.15C151.966 257.738 151.434 258.382 150.916 258.858L147.206 258.858C147.752 258.326 148.256 257.752 148.718 257.15L152.372 257.15ZM148.956 254.938C147.976 256.828 146.268 258.522 144.546 259.586C144.742 259.81 145.036 260.342 145.134 260.566C145.554 260.286 145.974 259.964 146.38 259.614L146.38 265.606C146.38 267.244 147.066 267.622 149.292 267.622C149.796 267.622 154.15 267.622 154.71 267.622C156.796 267.622 157.23 266.992 157.482 264.808C157.174 264.752 156.74 264.584 156.46 264.416C156.306 266.264 156.082 266.656 154.696 266.656C153.744 266.656 149.964 266.656 149.222 266.656C147.682 266.656 147.402 266.46 147.402 265.62L147.402 263.282L155.004 263.282L155.004 263.912L156.054 263.912L156.054 258.858L152.19 258.858C152.848 258.186 153.492 257.374 153.968 256.632L153.282 256.142L153.072 256.212L149.362 256.212C149.558 255.904 149.74 255.596 149.908 255.288L148.956 254.938ZM161.85 270.24C164.202 270.24 165.7 269.022 165.7 267.608C165.7 266.348 164.804 265.802 163.054 265.802L161.556 265.802C160.534 265.802 160.226 265.452 160.226 264.976C160.226 264.556 160.436 264.304 160.716 264.066C161.052 264.234 161.472 264.332 161.836 264.332C163.404 264.332 164.622 263.31 164.622 261.686C164.622 261.028 164.37 260.468 164.006 260.118L165.56 260.118L165.56 259.138L162.914 259.138C162.648 259.026 162.27 258.942 161.836 258.942C160.31 258.942 158.994 259.992 158.994 261.658C158.994 262.568 159.484 263.31 159.988 263.702L159.988 263.758C159.582 264.038 159.148 264.542 159.148 265.172C159.148 265.774 159.442 266.18 159.834 266.418L159.834 266.488C159.12 266.922 158.714 267.552 158.714 268.21C158.714 269.512 160.002 270.24 161.85 270.24ZM161.836 263.464C160.968 263.464 160.226 262.764 160.226 261.658C160.226 260.538 160.954 259.88 161.836 259.88C162.746 259.88 163.46 260.538 163.46 261.658C163.46 262.764 162.718 263.464 161.836 263.464ZM162.032 269.358C160.646 269.358 159.834 268.84 159.834 268.028C159.834 267.594 160.058 267.132 160.604 266.74C160.94 266.824 161.304 266.852 161.584 266.852L162.9 266.852C163.908 266.852 164.44 267.104 164.44 267.818C164.44 268.602 163.502 269.358 162.032 269.358ZM167.184 266.74L168.472 266.74L168.472 261.854C168.976 260.566 169.746 260.09 170.376 260.09C170.698 260.09 170.866 260.132 171.118 260.216L171.356 259.11C171.118 258.984 170.88 258.942 170.544 258.942C169.704 258.942 168.92 259.558 168.388 260.524L168.36 260.524L168.234 259.138L167.184 259.138L167.184 266.74ZM174.366 266.922C175.304 266.922 176.158 266.432 176.886 265.83L176.928 265.83L177.04 266.74L178.09 266.74L178.09 262.064C178.09 260.174 177.32 258.942 175.458 258.942C174.226 258.942 173.162 259.488 172.476 259.936L172.966 260.818C173.568 260.412 174.366 260.006 175.248 260.006C176.494 260.006 176.816 260.944 176.816 261.924C173.582 262.288 172.154 263.114 172.154 264.766C172.154 266.138 173.092 266.922 174.366 266.922ZM174.73 265.886C173.974 265.886 173.386 265.55 173.386 264.682C173.386 263.702 174.254 263.072 176.816 262.778L176.816 264.892C176.074 265.55 175.458 265.886 174.73 265.886ZM180.624 270.016C182.136 270.016 182.934 268.868 183.466 267.384L186.322 259.138L185.076 259.138L183.704 263.352C183.508 264.038 183.284 264.808 183.088 265.508L183.018 265.508C182.752 264.794 182.5 264.024 182.262 263.352L180.722 259.138L179.392 259.138L182.444 266.754L182.276 267.328C181.954 268.266 181.422 268.966 180.568 268.966C180.358 268.966 180.134 268.896 179.98 268.84L179.728 269.862C179.966 269.96 180.274 270.016 180.624 270.016ZM187.148 263.31L190.732 263.31L190.732 262.33L187.148 262.33L187.148 263.31ZM195.03 266.922C196.752 266.922 198.39 265.648 198.39 263.408C198.39 261.14 196.99 260.132 195.296 260.132C194.68 260.132 194.218 260.286 193.756 260.538L194.022 257.57L197.886 257.57L197.886 256.478L192.902 256.478L192.566 261.266L193.252 261.7C193.84 261.308 194.274 261.098 194.96 261.098C196.248 261.098 197.088 261.966 197.088 263.436C197.088 264.934 196.122 265.858 194.904 265.858C193.714 265.858 192.958 265.312 192.384 264.724L191.74 265.564C192.44 266.25 193.42 266.922 195.03 266.922ZM203.024 266.922C204.97 266.922 206.216 265.158 206.216 261.574C206.216 258.018 204.97 256.296 203.024 256.296C201.064 256.296 199.832 258.018 199.832 261.574C199.832 265.158 201.064 266.922 203.024 266.922ZM203.024 265.886C201.862 265.886 201.064 264.584 201.064 261.574C201.064 258.578 201.862 257.304 203.024 257.304C204.186 257.304 204.984 258.578 204.984 261.574C204.984 264.584 204.186 265.886 203.024 265.886ZM210.794 266.922C212.74 266.922 213.986 265.158 213.986 261.574C213.986 258.018 212.74 256.296 210.794 256.296C208.834 256.296 207.602 258.018 207.602 261.574C207.602 265.158 208.834 266.922 210.794 266.922ZM210.794 265.886C209.632 265.886 208.834 264.584 208.834 261.574C208.834 258.578 209.632 257.304 210.794 257.304C211.956 257.304 212.754 258.578 212.754 261.574C212.754 264.584 211.956 265.886 210.794 265.886ZM218.172 259.936C218.732 259.936 219.236 259.53 219.236 258.9C219.236 258.256 218.732 257.836 218.172 257.836C217.612 257.836 217.108 258.256 217.108 258.9C217.108 259.53 217.612 259.936 218.172 259.936ZM218.172 266.796C218.732 266.796 219.236 266.376 219.236 265.746C219.236 265.102 218.732 264.696 218.172 264.696C217.612 264.696 217.108 265.102 217.108 265.746C217.108 266.376 217.612 266.796 218.172 266.796Z"></path></g><rect x="237" y="241" width="40" height="40" stroke="rgba(0, 0, 0, 1)" stroke-width="1"      fill="#6B7280" ></rect><g ><path     fill="#000000"  d="M118.96 311.82C119.688 312.296 120.584 312.982 121.018 313.444L121.662 312.758C121.2 312.296 120.29 311.652 119.576 311.204L118.96 311.82ZM111.288 311.82C112.142 312.268 113.164 312.982 113.654 313.5L114.284 312.716C113.78 312.212 112.73 311.54 111.89 311.12L111.288 311.82ZM110.532 315.628C111.4 316.048 112.436 316.72 112.954 317.21L113.57 316.398C113.052 315.922 111.974 315.278 111.12 314.9L110.532 315.628ZM110.882 323.034L111.806 323.65C112.52 322.334 113.332 320.57 113.962 319.072L113.136 318.456C112.45 320.066 111.54 321.942 110.882 323.034ZM122.278 317.77C121.578 318.736 120.626 319.604 119.506 320.332C119.212 319.632 118.96 318.778 118.764 317.84L123.3 317.238L123.146 316.3L118.568 316.874C118.47 316.286 118.372 315.642 118.302 314.984L122.754 314.452L122.614 313.5L118.218 314.018C118.134 313.052 118.106 312.044 118.106 311.008L117.028 311.008C117.042 312.072 117.084 313.122 117.168 314.13L114.452 314.452L114.592 315.432L117.252 315.11C117.322 315.768 117.42 316.398 117.518 317.014L114.2 317.434L114.354 318.414L117.7 317.98C117.924 319.072 118.218 320.066 118.568 320.906C117.238 321.648 115.726 322.236 114.158 322.642C114.41 322.894 114.676 323.286 114.816 323.552C116.3 323.118 117.714 322.53 119.002 321.802C119.716 323.104 120.612 323.874 121.718 323.874C122.81 323.874 123.202 323.202 123.398 320.864C123.132 320.766 122.74 320.542 122.516 320.304C122.418 322.138 122.222 322.824 121.774 322.824C121.088 322.824 120.458 322.25 119.926 321.242C121.228 320.402 122.348 319.394 123.174 318.246L122.278 317.77ZM130.636 315.852L130.636 318.274L127.402 318.274L127.402 315.852L130.636 315.852ZM131.658 315.852L135.004 315.852L135.004 318.274L131.658 318.274L131.658 315.852ZM132.372 313.15C131.966 313.738 131.434 314.382 130.916 314.858L127.206 314.858C127.752 314.326 128.256 313.752 128.718 313.15L132.372 313.15ZM128.956 310.938C127.976 312.828 126.268 314.522 124.546 315.586C124.742 315.81 125.036 316.342 125.134 316.566C125.554 316.286 125.974 315.964 126.38 315.614L126.38 321.606C126.38 323.244 127.066 323.622 129.292 323.622C129.796 323.622 134.15 323.622 134.71 323.622C136.796 323.622 137.23 322.992 137.482 320.808C137.174 320.752 136.74 320.584 136.46 320.416C136.306 322.264 136.082 322.656 134.696 322.656C133.744 322.656 129.964 322.656 129.222 322.656C127.682 322.656 127.402 322.46 127.402 321.62L127.402 319.282L135.004 319.282L135.004 319.912L136.054 319.912L136.054 314.858L132.19 314.858C132.848 314.186 133.492 313.374 133.968 312.632L133.282 312.142L133.072 312.212L129.362 312.212C129.558 311.904 129.74 311.596 129.908 311.288L128.956 310.938ZM148.29 317.448L148.29 318.638L141.822 318.638L141.822 317.448L148.29 317.448ZM140.772 316.636L140.772 323.86L141.822 323.86L141.822 321.438L148.29 321.438L148.29 322.684C148.29 322.88 148.206 322.95 147.982 322.964C147.758 322.964 146.932 322.964 146.12 322.936C146.26 323.202 146.414 323.594 146.47 323.874C147.59 323.874 148.318 323.86 148.766 323.706C149.2 323.552 149.354 323.272 149.354 322.698L149.354 316.636L140.772 316.636ZM141.822 319.408L148.29 319.408L148.29 320.668L141.822 320.668L141.822 319.408ZM142.62 310.966L142.62 312.198L139.106 312.198L139.106 313.052L142.62 313.052L142.62 314.312C141.15 314.564 139.75 314.788 138.756 314.928L138.924 315.838L142.62 315.138L142.62 316.174L143.656 316.174L143.656 310.966L142.62 310.966ZM145.7 310.98L145.7 314.676C145.7 315.754 146.036 316.048 147.38 316.048C147.646 316.048 149.466 316.048 149.76 316.048C150.796 316.048 151.104 315.684 151.23 314.312C150.936 314.256 150.516 314.102 150.292 313.948C150.236 314.97 150.138 315.138 149.662 315.138C149.27 315.138 147.772 315.138 147.492 315.138C146.862 315.138 146.75 315.068 146.75 314.676L146.75 313.584C148.094 313.276 149.592 312.828 150.67 312.366L149.928 311.61C149.172 311.988 147.926 312.408 146.75 312.744L146.75 310.98L145.7 310.98ZM155.388 313.78L162.57 313.78L162.57 314.676L155.388 314.676L155.388 313.78ZM155.388 312.198L162.57 312.198L162.57 313.08L155.388 313.08L155.388 312.198ZM155.71 318.68L162.304 318.68L162.304 320.01L155.71 320.01L155.71 318.68ZM160.722 321.816C162.01 322.306 163.62 323.104 164.432 323.664L165.146 322.978C164.278 322.404 162.654 321.648 161.394 321.2L160.722 321.816ZM156.074 321.144C155.234 321.816 153.848 322.46 152.616 322.866C152.854 323.034 153.218 323.412 153.4 323.622C154.59 323.132 156.088 322.334 157.026 321.536L156.074 321.144ZM158.062 315.656C158.202 315.838 158.342 316.062 158.468 316.286L152.784 316.286L152.784 317.154L165.174 317.154L165.174 316.286L159.602 316.286C159.462 315.992 159.252 315.67 159.028 315.404L163.62 315.404L163.62 311.484L154.38 311.484L154.38 315.404L158.818 315.404L158.062 315.656ZM154.702 317.896L154.702 320.78L158.468 320.78L158.468 322.824C158.468 322.978 158.426 323.02 158.23 323.034C158.034 323.048 157.348 323.048 156.62 323.02C156.76 323.258 156.9 323.594 156.942 323.86C157.936 323.86 158.58 323.86 158.986 323.72C159.406 323.594 159.532 323.37 159.532 322.852L159.532 320.78L163.354 320.78L163.354 317.896L154.702 317.896ZM169.85 326.24C172.202 326.24 173.7 325.022 173.7 323.608C173.7 322.348 172.804 321.802 171.054 321.802L169.556 321.802C168.534 321.802 168.226 321.452 168.226 320.976C168.226 320.556 168.436 320.304 168.716 320.066C169.052 320.234 169.472 320.332 169.836 320.332C171.404 320.332 172.622 319.31 172.622 317.686C172.622 317.028 172.37 316.468 172.006 316.118L173.56 316.118L173.56 315.138L170.914 315.138C170.648 315.026 170.27 314.942 169.836 314.942C168.31 314.942 166.994 315.992 166.994 317.658C166.994 318.568 167.484 319.31 167.988 319.702L167.988 319.758C167.582 320.038 167.148 320.542 167.148 321.172C167.148 321.774 167.442 322.18 167.834 322.418L167.834 322.488C167.12 322.922 166.714 323.552 166.714 324.21C166.714 325.512 168.002 326.24 169.85 326.24ZM169.836 319.464C168.968 319.464 168.226 318.764 168.226 317.658C168.226 316.538 168.954 315.88 169.836 315.88C170.746 315.88 171.46 316.538 171.46 317.658C171.46 318.764 170.718 319.464 169.836 319.464ZM170.032 325.358C168.646 325.358 167.834 324.84 167.834 324.028C167.834 323.594 168.058 323.132 168.604 322.74C168.94 322.824 169.304 322.852 169.584 322.852L170.9 322.852C171.908 322.852 172.44 323.104 172.44 323.818C172.44 324.602 171.502 325.358 170.032 325.358ZM175.184 322.74L176.472 322.74L176.472 317.854C176.976 316.566 177.746 316.09 178.376 316.09C178.698 316.09 178.866 316.132 179.118 316.216L179.356 315.11C179.118 314.984 178.88 314.942 178.544 314.942C177.704 314.942 176.92 315.558 176.388 316.524L176.36 316.524L176.234 315.138L175.184 315.138L175.184 322.74ZM182.366 322.922C183.304 322.922 184.158 322.432 184.886 321.83L184.928 321.83L185.04 322.74L186.09 322.74L186.09 318.064C186.09 316.174 185.32 314.942 183.458 314.942C182.226 314.942 181.162 315.488 180.476 315.936L180.966 316.818C181.568 316.412 182.366 316.006 183.248 316.006C184.494 316.006 184.816 316.944 184.816 317.924C181.582 318.288 180.154 319.114 180.154 320.766C180.154 322.138 181.092 322.922 182.366 322.922ZM182.73 321.886C181.974 321.886 181.386 321.55 181.386 320.682C181.386 319.702 182.254 319.072 184.816 318.778L184.816 320.892C184.074 321.55 183.458 321.886 182.73 321.886ZM188.624 326.016C190.136 326.016 190.934 324.868 191.466 323.384L194.322 315.138L193.076 315.138L191.704 319.352C191.508 320.038 191.284 320.808 191.088 321.508L191.018 321.508C190.752 320.794 190.5 320.024 190.262 319.352L188.722 315.138L187.392 315.138L190.444 322.754L190.276 323.328C189.954 324.266 189.422 324.966 188.568 324.966C188.358 324.966 188.134 324.896 187.98 324.84L187.728 325.862C187.966 325.96 188.274 326.016 188.624 326.016ZM195.148 319.31L198.732 319.31L198.732 318.33L195.148 318.33L195.148 319.31ZM203.03 322.922C204.752 322.922 206.39 321.648 206.39 319.408C206.39 317.14 204.99 316.132 203.296 316.132C202.68 316.132 202.218 316.286 201.756 316.538L202.022 313.57L205.886 313.57L205.886 312.478L200.902 312.478L200.566 317.266L201.252 317.7C201.84 317.308 202.274 317.098 202.96 317.098C204.248 317.098 205.088 317.966 205.088 319.436C205.088 320.934 204.122 321.858 202.904 321.858C201.714 321.858 200.958 321.312 200.384 320.724L199.74 321.564C200.44 322.25 201.42 322.922 203.03 322.922ZM211.024 322.922C212.97 322.922 214.216 321.158 214.216 317.574C214.216 314.018 212.97 312.296 211.024 312.296C209.064 312.296 207.832 314.018 207.832 317.574C207.832 321.158 209.064 322.922 211.024 322.922ZM211.024 321.886C209.862 321.886 209.064 320.584 209.064 317.574C209.064 314.578 209.862 313.304 211.024 313.304C212.186 313.304 212.984 314.578 212.984 317.574C212.984 320.584 212.186 321.886 211.024 321.886ZM218.402 315.936C218.962 315.936 219.466 315.53 219.466 314.9C219.466 314.256 218.962 313.836 218.402 313.836C217.842 313.836 217.338 314.256 217.338 314.9C217.338 315.53 217.842 315.936 218.402 315.936ZM218.402 322.796C218.962 322.796 219.466 322.376 219.466 321.746C219.466 321.102 218.962 320.696 218.402 320.696C217.842 320.696 217.338 321.102 217.338 321.746C217.338 322.376 217.842 322.796 218.402 322.796Z"></path></g><rect x="237" y="297" width="40" height="40" stroke="rgba(0, 0, 0, 1)" stroke-width="1"      fill="#F9FAFB" ></rect><g ><path     fill="#000000"  d="M61.75 379.748C62.072 379.51 62.59 379.286 66.426 378.04C66.37 377.788 66.342 377.312 66.356 376.976L62.912 378.04L62.912 372.356L66.384 372.356L66.384 371.306L62.912 371.306L62.912 367.134L61.806 367.134L61.806 377.774C61.806 378.376 61.47 378.698 61.232 378.838C61.414 379.048 61.666 379.496 61.75 379.748ZM67.476 367.05L67.476 377.522C67.476 379.076 67.854 379.496 69.198 379.496C69.464 379.496 71.074 379.496 71.354 379.496C72.782 379.496 73.062 378.53 73.188 375.73C72.894 375.66 72.446 375.45 72.18 375.24C72.082 377.83 71.984 378.488 71.284 378.488C70.92 378.488 69.59 378.488 69.31 378.488C68.68 378.488 68.554 378.348 68.554 377.55L68.554 373.462C70.108 372.58 71.774 371.516 72.992 370.48L72.11 369.556C71.256 370.438 69.898 371.516 68.554 372.342L68.554 367.05L67.476 367.05ZM82.96 367.82C83.688 368.296 84.584 368.982 85.018 369.444L85.662 368.758C85.2 368.296 84.29 367.652 83.576 367.204L82.96 367.82ZM75.288 367.82C76.142 368.268 77.164 368.982 77.654 369.5L78.284 368.716C77.78 368.212 76.73 367.54 75.89 367.12L75.288 367.82ZM74.532 371.628C75.4 372.048 76.436 372.72 76.954 373.21L77.57 372.398C77.052 371.922 75.974 371.278 75.12 370.9L74.532 371.628ZM74.882 379.034L75.806 379.65C76.52 378.334 77.332 376.57 77.962 375.072L77.136 374.456C76.45 376.066 75.54 377.942 74.882 379.034ZM86.278 373.77C85.578 374.736 84.626 375.604 83.506 376.332C83.212 375.632 82.96 374.778 82.764 373.84L87.3 373.238L87.146 372.3L82.568 372.874C82.47 372.286 82.372 371.642 82.302 370.984L86.754 370.452L86.614 369.5L82.218 370.018C82.134 369.052 82.106 368.044 82.106 367.008L81.028 367.008C81.042 368.072 81.084 369.122 81.168 370.13L78.452 370.452L78.592 371.432L81.252 371.11C81.322 371.768 81.42 372.398 81.518 373.014L78.2 373.434L78.354 374.414L81.7 373.98C81.924 375.072 82.218 376.066 82.568 376.906C81.238 377.648 79.726 378.236 78.158 378.642C78.41 378.894 78.676 379.286 78.816 379.552C80.3 379.118 81.714 378.53 83.002 377.802C83.716 379.104 84.612 379.874 85.718 379.874C86.81 379.874 87.202 379.202 87.398 376.864C87.132 376.766 86.74 376.542 86.516 376.304C86.418 378.138 86.222 378.824 85.774 378.824C85.088 378.824 84.458 378.25 83.926 377.242C85.228 376.402 86.348 375.394 87.174 374.246L86.278 373.77ZM94.636 371.852L94.636 374.274L91.402 374.274L91.402 371.852L94.636 371.852ZM95.658 371.852L99.004 371.852L99.004 374.274L95.658 374.274L95.658 371.852ZM96.372 369.15C95.966 369.738 95.434 370.382 94.916 370.858L91.206 370.858C91.752 370.326 92.256 369.752 92.718 369.15L96.372 369.15ZM92.956 366.938C91.976 368.828 90.268 370.522 88.546 371.586C88.742 371.81 89.036 372.342 89.134 372.566C89.554 372.286 89.974 371.964 90.38 371.614L90.38 377.606C90.38 379.244 91.066 379.622 93.292 379.622C93.796 379.622 98.15 379.622 98.71 379.622C100.796 379.622 101.23 378.992 101.482 376.808C101.174 376.752 100.74 376.584 100.46 376.416C100.306 378.264 100.082 378.656 98.696 378.656C97.744 378.656 93.964 378.656 93.222 378.656C91.682 378.656 91.402 378.46 91.402 377.62L91.402 375.282L99.004 375.282L99.004 375.912L100.054 375.912L100.054 370.858L96.19 370.858C96.848 370.186 97.492 369.374 97.968 368.632L97.282 368.142L97.072 368.212L93.362 368.212C93.558 367.904 93.74 367.596 93.908 367.288L92.956 366.938ZM105.528 375.408L104.632 375.772C105.108 376.584 105.696 377.228 106.382 377.746C105.528 378.236 104.324 378.642 102.658 378.95C102.882 379.188 103.162 379.636 103.288 379.874C105.108 379.482 106.41 378.964 107.348 378.348C109.28 379.37 111.856 379.692 115.118 379.818C115.174 379.468 115.37 379.02 115.566 378.782C112.43 378.698 110.008 378.488 108.202 377.676C108.93 376.962 109.308 376.15 109.476 375.282L114.222 375.282L114.222 369.864L109.63 369.864L109.63 368.674L115.09 368.674L115.09 367.722L102.91 367.722L102.91 368.674L108.538 368.674L108.538 369.864L104.184 369.864L104.184 375.282L108.37 375.282C108.202 375.954 107.88 376.584 107.236 377.144C106.564 376.696 105.99 376.136 105.528 375.408ZM105.192 372.986L108.538 372.986L108.538 373.546C108.538 373.84 108.538 374.134 108.51 374.414L105.192 374.414L105.192 372.986ZM109.602 374.414C109.616 374.134 109.63 373.854 109.63 373.56L109.63 372.986L113.172 372.986L113.172 374.414L109.602 374.414ZM105.192 370.746L108.538 370.746L108.538 372.146L105.192 372.146L105.192 370.746ZM109.63 370.746L113.172 370.746L113.172 372.146L109.63 372.146L109.63 370.746ZM120.592 367.75L120.592 370.27L121.544 370.27L121.544 368.674L127.886 368.674L127.886 370.228L128.866 370.228L128.866 367.75L120.592 367.75ZM123.098 369.598C122.496 370.634 121.488 371.628 120.452 372.272C120.676 372.44 121.054 372.818 121.208 373C122.244 372.258 123.364 371.082 124.05 369.892L123.098 369.598ZM125.268 370.004C126.262 370.886 127.396 372.132 127.914 372.944L128.726 372.356C128.18 371.544 127.004 370.34 126.024 369.486L125.268 370.004ZM117.176 367.932C117.96 368.324 118.996 368.968 119.486 369.402L120.046 368.506C119.514 368.086 118.492 367.498 117.722 367.134L117.176 367.932ZM116.532 371.726C117.386 372.132 118.478 372.776 119.024 373.224L119.57 372.356C119.01 371.922 117.904 371.306 117.064 370.956L116.532 371.726ZM116.854 378.88L117.638 379.608C118.338 378.32 119.178 376.584 119.822 375.128L119.122 374.414C118.422 375.996 117.498 377.816 116.854 378.88ZM124.134 372.216L124.134 373.742L120.508 373.742L120.508 374.694L123.49 374.694C122.65 376.234 121.25 377.592 119.752 378.278C119.976 378.474 120.298 378.838 120.452 379.09C121.908 378.32 123.238 376.948 124.134 375.352L124.134 379.79L125.184 379.79L125.184 375.31C126.038 376.85 127.298 378.264 128.586 379.062C128.754 378.796 129.076 378.432 129.328 378.222C127.984 377.536 126.654 376.164 125.856 374.694L128.894 374.694L128.894 373.742L125.184 373.742L125.184 372.216L124.134 372.216ZM140.29 373.448L140.29 374.638L133.822 374.638L133.822 373.448L140.29 373.448ZM132.772 372.636L132.772 379.86L133.822 379.86L133.822 377.438L140.29 377.438L140.29 378.684C140.29 378.88 140.206 378.95 139.982 378.964C139.758 378.964 138.932 378.964 138.12 378.936C138.26 379.202 138.414 379.594 138.47 379.874C139.59 379.874 140.318 379.86 140.766 379.706C141.2 379.552 141.354 379.272 141.354 378.698L141.354 372.636L132.772 372.636ZM133.822 375.408L140.29 375.408L140.29 376.668L133.822 376.668L133.822 375.408ZM134.62 366.966L134.62 368.198L131.106 368.198L131.106 369.052L134.62 369.052L134.62 370.312C133.15 370.564 131.75 370.788 130.756 370.928L130.924 371.838L134.62 371.138L134.62 372.174L135.656 372.174L135.656 366.966L134.62 366.966ZM137.7 366.98L137.7 370.676C137.7 371.754 138.036 372.048 139.38 372.048C139.646 372.048 141.466 372.048 141.76 372.048C142.796 372.048 143.104 371.684 143.23 370.312C142.936 370.256 142.516 370.102 142.292 369.948C142.236 370.97 142.138 371.138 141.662 371.138C141.27 371.138 139.772 371.138 139.492 371.138C138.862 371.138 138.75 371.068 138.75 370.676L138.75 369.584C140.094 369.276 141.592 368.828 142.67 368.366L141.928 367.61C141.172 367.988 139.926 368.408 138.75 368.744L138.75 366.98L137.7 366.98ZM147.388 369.78L154.57 369.78L154.57 370.676L147.388 370.676L147.388 369.78ZM147.388 368.198L154.57 368.198L154.57 369.08L147.388 369.08L147.388 368.198ZM147.71 374.68L154.304 374.68L154.304 376.01L147.71 376.01L147.71 374.68ZM152.722 377.816C154.01 378.306 155.62 379.104 156.432 379.664L157.146 378.978C156.278 378.404 154.654 377.648 153.394 377.2L152.722 377.816ZM148.074 377.144C147.234 377.816 145.848 378.46 144.616 378.866C144.854 379.034 145.218 379.412 145.4 379.622C146.59 379.132 148.088 378.334 149.026 377.536L148.074 377.144ZM150.062 371.656C150.202 371.838 150.342 372.062 150.468 372.286L144.784 372.286L144.784 373.154L157.174 373.154L157.174 372.286L151.602 372.286C151.462 371.992 151.252 371.67 151.028 371.404L155.62 371.404L155.62 367.484L146.38 367.484L146.38 371.404L150.818 371.404L150.062 371.656ZM146.702 373.896L146.702 376.78L150.468 376.78L150.468 378.824C150.468 378.978 150.426 379.02 150.23 379.034C150.034 379.048 149.348 379.048 148.62 379.02C148.76 379.258 148.9 379.594 148.942 379.86C149.936 379.86 150.58 379.86 150.986 379.72C151.406 379.594 151.532 379.37 151.532 378.852L151.532 376.78L155.354 376.78L155.354 373.896L146.702 373.896ZM161.85 382.24C164.202 382.24 165.7 381.022 165.7 379.608C165.7 378.348 164.804 377.802 163.054 377.802L161.556 377.802C160.534 377.802 160.226 377.452 160.226 376.976C160.226 376.556 160.436 376.304 160.716 376.066C161.052 376.234 161.472 376.332 161.836 376.332C163.404 376.332 164.622 375.31 164.622 373.686C164.622 373.028 164.37 372.468 164.006 372.118L165.56 372.118L165.56 371.138L162.914 371.138C162.648 371.026 162.27 370.942 161.836 370.942C160.31 370.942 158.994 371.992 158.994 373.658C158.994 374.568 159.484 375.31 159.988 375.702L159.988 375.758C159.582 376.038 159.148 376.542 159.148 377.172C159.148 377.774 159.442 378.18 159.834 378.418L159.834 378.488C159.12 378.922 158.714 379.552 158.714 380.21C158.714 381.512 160.002 382.24 161.85 382.24ZM161.836 375.464C160.968 375.464 160.226 374.764 160.226 373.658C160.226 372.538 160.954 371.88 161.836 371.88C162.746 371.88 163.46 372.538 163.46 373.658C163.46 374.764 162.718 375.464 161.836 375.464ZM162.032 381.358C160.646 381.358 159.834 380.84 159.834 380.028C159.834 379.594 160.058 379.132 160.604 378.74C160.94 378.824 161.304 378.852 161.584 378.852L162.9 378.852C163.908 378.852 164.44 379.104 164.44 379.818C164.44 380.602 163.502 381.358 162.032 381.358ZM167.184 378.74L168.472 378.74L168.472 373.854C168.976 372.566 169.746 372.09 170.376 372.09C170.698 372.09 170.866 372.132 171.118 372.216L171.356 371.11C171.118 370.984 170.88 370.942 170.544 370.942C169.704 370.942 168.92 371.558 168.388 372.524L168.36 372.524L168.234 371.138L167.184 371.138L167.184 378.74ZM174.366 378.922C175.304 378.922 176.158 378.432 176.886 377.83L176.928 377.83L177.04 378.74L178.09 378.74L178.09 374.064C178.09 372.174 177.32 370.942 175.458 370.942C174.226 370.942 173.162 371.488 172.476 371.936L172.966 372.818C173.568 372.412 174.366 372.006 175.248 372.006C176.494 372.006 176.816 372.944 176.816 373.924C173.582 374.288 172.154 375.114 172.154 376.766C172.154 378.138 173.092 378.922 174.366 378.922ZM174.73 377.886C173.974 377.886 173.386 377.55 173.386 376.682C173.386 375.702 174.254 375.072 176.816 374.778L176.816 376.892C176.074 377.55 175.458 377.886 174.73 377.886ZM180.624 382.016C182.136 382.016 182.934 380.868 183.466 379.384L186.322 371.138L185.076 371.138L183.704 375.352C183.508 376.038 183.284 376.808 183.088 377.508L183.018 377.508C182.752 376.794 182.5 376.024 182.262 375.352L180.722 371.138L179.392 371.138L182.444 378.754L182.276 379.328C181.954 380.266 181.422 380.966 180.568 380.966C180.358 380.966 180.134 380.896 179.98 380.84L179.728 381.862C179.966 381.96 180.274 382.016 180.624 382.016ZM187.148 375.31L190.732 375.31L190.732 374.33L187.148 374.33L187.148 375.31ZM192.594 378.74L198.222 378.74L198.222 377.676L196.164 377.676L196.164 368.478L195.184 368.478C194.624 368.8 193.966 369.038 193.056 369.206L193.056 370.018L194.89 370.018L194.89 377.676L192.594 377.676L192.594 378.74ZM203.024 378.922C204.97 378.922 206.216 377.158 206.216 373.574C206.216 370.018 204.97 368.296 203.024 368.296C201.064 368.296 199.832 370.018 199.832 373.574C199.832 377.158 201.064 378.922 203.024 378.922ZM203.024 377.886C201.862 377.886 201.064 376.584 201.064 373.574C201.064 370.578 201.862 369.304 203.024 369.304C204.186 369.304 204.984 370.578 204.984 373.574C204.984 376.584 204.186 377.886 203.024 377.886ZM210.794 378.922C212.74 378.922 213.986 377.158 213.986 373.574C213.986 370.018 212.74 368.296 210.794 368.296C208.834 368.296 207.602 370.018 207.602 373.574C207.602 377.158 208.834 378.922 210.794 378.922ZM210.794 377.886C209.632 377.886 208.834 376.584 208.834 373.574C208.834 370.578 209.632 369.304 210.794 369.304C211.956 369.304 212.754 370.578 212.754 373.574C212.754 376.584 211.956 377.886 210.794 377.886ZM218.172 371.936C218.732 371.936 219.236 371.53 219.236 370.9C219.236 370.256 218.732 369.836 218.172 369.836C217.612 369.836 217.108 370.256 217.108 370.9C217.108 371.53 217.612 371.936 218.172 371.936ZM218.172 378.796C218.732 378.796 219.236 378.376 219.236 377.746C219.236 377.102 218.732 376.696 218.172 376.696C217.612 376.696 217.108 377.102 217.108 377.746C217.108 378.376 217.612 378.796 218.172 378.796Z"></path></g><rect x="237" y="353" width="40" height="40" stroke="rgba(0, 0, 0, 1)" stroke-width="1"      fill="#F3F4F6" ></rect><g ><path     fill="#000000"  d="M103.148 423.764C103.918 424.492 104.856 425.514 105.304 426.172L106.158 425.5C105.696 424.87 104.73 423.89 103.96 423.19L103.148 423.764ZM109.742 423.19C109.728 423.974 109.714 424.744 109.672 425.486L106.788 425.486L106.788 426.494L109.602 426.494C109.364 429.182 108.664 431.422 106.382 432.78C106.662 432.962 106.984 433.298 107.138 433.55C109.616 431.982 110.4 429.49 110.694 426.494L113.802 426.494C113.62 430.428 113.424 431.968 113.074 432.346C112.934 432.5 112.78 432.528 112.514 432.514C112.192 432.514 111.408 432.514 110.582 432.444C110.778 432.752 110.918 433.2 110.946 433.522C111.716 433.55 112.514 433.578 112.934 433.536C113.41 433.494 113.718 433.382 114.012 433.018C114.488 432.444 114.684 430.75 114.88 425.99C114.894 425.85 114.894 425.486 114.894 425.486L110.764 425.486C110.806 424.744 110.834 423.974 110.848 423.19L109.742 423.19ZM105.472 427.726L102.588 427.726L102.588 428.762L104.422 428.762L104.422 433.116C103.806 433.368 103.092 434.026 102.336 434.866L103.12 435.888C103.806 434.908 104.464 434.012 104.912 434.012C105.22 434.012 105.696 434.516 106.284 434.908C107.292 435.552 108.482 435.706 110.302 435.706C111.716 435.706 114.306 435.622 115.3 435.552C115.328 435.23 115.496 434.67 115.636 434.376C114.222 434.53 112.08 434.656 110.344 434.656C108.706 434.656 107.474 434.558 106.55 433.956C106.06 433.648 105.738 433.368 105.472 433.2L105.472 427.726ZM129.244 423.806L121.544 423.806L121.544 435.174L129.468 435.174L129.468 434.222L122.552 434.222L122.552 424.772L129.244 424.772L129.244 423.806ZM123.042 431.94L123.042 432.864L129.034 432.864L129.034 431.94L126.416 431.94L126.416 429.756L128.628 429.756L128.628 428.86L126.416 428.86L126.416 426.9L128.922 426.9L128.922 425.99L123.168 425.99L123.168 426.9L125.436 426.9L125.436 428.86L123.406 428.86L123.406 429.756L125.436 429.756L125.436 431.94L123.042 431.94ZM118.66 422.952L118.66 425.878L116.602 425.878L116.602 426.872L118.576 426.872C118.142 428.72 117.26 430.834 116.378 431.912C116.546 432.178 116.798 432.626 116.896 432.92C117.54 432.038 118.184 430.596 118.66 429.098L118.66 435.818L119.626 435.818L119.626 428.496C120.088 429.14 120.634 429.952 120.872 430.372L121.432 429.462C121.166 429.14 120.06 427.81 119.626 427.362L119.626 426.872L121.18 426.872L121.18 425.878L119.626 425.878L119.626 422.952L118.66 422.952ZM139.772 427.656C139.744 432.682 139.576 434.264 136.048 435.16C136.216 435.342 136.454 435.678 136.538 435.888C140.29 434.866 140.57 432.976 140.598 427.656L139.772 427.656ZM135.6 428.314C134.83 429 133.402 429.644 132.212 430.008C132.45 430.19 132.716 430.484 132.87 430.694C134.13 430.26 135.572 429.532 136.468 428.678L135.6 428.314ZM136.034 432.15C135.194 433.284 133.528 434.25 131.848 434.754C132.072 434.95 132.338 435.272 132.492 435.51C134.284 434.908 135.978 433.858 136.958 432.556L136.034 432.15ZM140.36 433.662C141.27 434.292 142.348 435.23 142.852 435.86L143.454 435.216C142.936 434.586 141.83 433.69 140.948 433.088L140.36 433.662ZM137.504 426.214L137.504 432.822L138.344 432.822L138.344 427.012L141.914 427.012L141.914 432.794L142.796 432.794L142.796 426.214L140.15 426.214C140.332 425.766 140.542 425.22 140.724 424.688L143.258 424.688L143.258 423.848L137.196 423.848L137.196 424.688L139.842 424.688C139.702 425.178 139.492 425.766 139.296 426.214L137.504 426.214ZM133.206 423.204C133.388 423.554 133.556 424.002 133.682 424.38L130.952 424.38L130.952 425.262L136.944 425.262L136.944 424.38L134.676 424.38C134.55 423.96 134.312 423.386 134.074 422.952L133.206 423.204ZM135.81 430.176C134.984 431.058 133.444 431.87 132.1 432.332C132.17 431.59 132.184 430.862 132.184 430.246L132.184 428.132L136.902 428.132L136.902 427.25L135.488 427.25C135.768 426.774 136.076 426.158 136.342 425.598L135.46 425.374C135.25 425.92 134.886 426.704 134.564 427.25L132.73 427.25L133.472 426.984C133.36 426.536 133.038 425.836 132.716 425.346L131.89 425.612C132.198 426.116 132.492 426.788 132.604 427.25L131.246 427.25L131.246 430.232C131.246 431.73 131.176 433.83 130.448 435.37C130.686 435.454 131.106 435.706 131.288 435.874C131.75 434.866 131.988 433.592 132.1 432.374C132.324 432.57 132.562 432.864 132.702 433.088C134.144 432.528 135.698 431.604 136.65 430.54L135.81 430.176ZM150.636 427.852L150.636 430.274L147.402 430.274L147.402 427.852L150.636 427.852ZM151.658 427.852L155.004 427.852L155.004 430.274L151.658 430.274L151.658 427.852ZM152.372 425.15C151.966 425.738 151.434 426.382 150.916 426.858L147.206 426.858C147.752 426.326 148.256 425.752 148.718 425.15L152.372 425.15ZM148.956 422.938C147.976 424.828 146.268 426.522 144.546 427.586C144.742 427.81 145.036 428.342 145.134 428.566C145.554 428.286 145.974 427.964 146.38 427.614L146.38 433.606C146.38 435.244 147.066 435.622 149.292 435.622C149.796 435.622 154.15 435.622 154.71 435.622C156.796 435.622 157.23 434.992 157.482 432.808C157.174 432.752 156.74 432.584 156.46 432.416C156.306 434.264 156.082 434.656 154.696 434.656C153.744 434.656 149.964 434.656 149.222 434.656C147.682 434.656 147.402 434.46 147.402 433.62L147.402 431.282L155.004 431.282L155.004 431.912L156.054 431.912L156.054 426.858L152.19 426.858C152.848 426.186 153.492 425.374 153.968 424.632L153.282 424.142L153.072 424.212L149.362 424.212C149.558 423.904 149.74 423.596 149.908 423.288L148.956 422.938ZM161.85 438.24C164.202 438.24 165.7 437.022 165.7 435.608C165.7 434.348 164.804 433.802 163.054 433.802L161.556 433.802C160.534 433.802 160.226 433.452 160.226 432.976C160.226 432.556 160.436 432.304 160.716 432.066C161.052 432.234 161.472 432.332 161.836 432.332C163.404 432.332 164.622 431.31 164.622 429.686C164.622 429.028 164.37 428.468 164.006 428.118L165.56 428.118L165.56 427.138L162.914 427.138C162.648 427.026 162.27 426.942 161.836 426.942C160.31 426.942 158.994 427.992 158.994 429.658C158.994 430.568 159.484 431.31 159.988 431.702L159.988 431.758C159.582 432.038 159.148 432.542 159.148 433.172C159.148 433.774 159.442 434.18 159.834 434.418L159.834 434.488C159.12 434.922 158.714 435.552 158.714 436.21C158.714 437.512 160.002 438.24 161.85 438.24ZM161.836 431.464C160.968 431.464 160.226 430.764 160.226 429.658C160.226 428.538 160.954 427.88 161.836 427.88C162.746 427.88 163.46 428.538 163.46 429.658C163.46 430.764 162.718 431.464 161.836 431.464ZM162.032 437.358C160.646 437.358 159.834 436.84 159.834 436.028C159.834 435.594 160.058 435.132 160.604 434.74C160.94 434.824 161.304 434.852 161.584 434.852L162.9 434.852C163.908 434.852 164.44 435.104 164.44 435.818C164.44 436.602 163.502 437.358 162.032 437.358ZM167.184 434.74L168.472 434.74L168.472 429.854C168.976 428.566 169.746 428.09 170.376 428.09C170.698 428.09 170.866 428.132 171.118 428.216L171.356 427.11C171.118 426.984 170.88 426.942 170.544 426.942C169.704 426.942 168.92 427.558 168.388 428.524L168.36 428.524L168.234 427.138L167.184 427.138L167.184 434.74ZM174.366 434.922C175.304 434.922 176.158 434.432 176.886 433.83L176.928 433.83L177.04 434.74L178.09 434.74L178.09 430.064C178.09 428.174 177.32 426.942 175.458 426.942C174.226 426.942 173.162 427.488 172.476 427.936L172.966 428.818C173.568 428.412 174.366 428.006 175.248 428.006C176.494 428.006 176.816 428.944 176.816 429.924C173.582 430.288 172.154 431.114 172.154 432.766C172.154 434.138 173.092 434.922 174.366 434.922ZM174.73 433.886C173.974 433.886 173.386 433.55 173.386 432.682C173.386 431.702 174.254 431.072 176.816 430.778L176.816 432.892C176.074 433.55 175.458 433.886 174.73 433.886ZM180.624 438.016C182.136 438.016 182.934 436.868 183.466 435.384L186.322 427.138L185.076 427.138L183.704 431.352C183.508 432.038 183.284 432.808 183.088 433.508L183.018 433.508C182.752 432.794 182.5 432.024 182.262 431.352L180.722 427.138L179.392 427.138L182.444 434.754L182.276 435.328C181.954 436.266 181.422 436.966 180.568 436.966C180.358 436.966 180.134 436.896 179.98 436.84L179.728 437.862C179.966 437.96 180.274 438.016 180.624 438.016ZM187.148 431.31L190.732 431.31L190.732 430.33L187.148 430.33L187.148 431.31ZM191.978 434.74L198.432 434.74L198.432 433.634L195.59 433.634C195.072 433.634 194.442 433.69 193.91 433.732C196.318 431.45 197.942 429.364 197.942 427.306C197.942 425.486 196.78 424.296 194.946 424.296C193.644 424.296 192.748 424.884 191.922 425.794L192.664 426.522C193.238 425.836 193.952 425.332 194.792 425.332C196.066 425.332 196.682 426.186 196.682 427.362C196.682 429.126 195.198 431.17 191.978 433.984L191.978 434.74ZM203.024 434.922C204.97 434.922 206.216 433.158 206.216 429.574C206.216 426.018 204.97 424.296 203.024 424.296C201.064 424.296 199.832 426.018 199.832 429.574C199.832 433.158 201.064 434.922 203.024 434.922ZM203.024 433.886C201.862 433.886 201.064 432.584 201.064 429.574C201.064 426.578 201.862 425.304 203.024 425.304C204.186 425.304 204.984 426.578 204.984 429.574C204.984 432.584 204.186 433.886 203.024 433.886ZM210.794 434.922C212.74 434.922 213.986 433.158 213.986 429.574C213.986 426.018 212.74 424.296 210.794 424.296C208.834 424.296 207.602 426.018 207.602 429.574C207.602 433.158 208.834 434.922 210.794 434.922ZM210.794 433.886C209.632 433.886 208.834 432.584 208.834 429.574C208.834 426.578 209.632 425.304 210.794 425.304C211.956 425.304 212.754 426.578 212.754 429.574C212.754 432.584 211.956 433.886 210.794 433.886ZM218.172 427.936C218.732 427.936 219.236 427.53 219.236 426.9C219.236 426.256 218.732 425.836 218.172 425.836C217.612 425.836 217.108 426.256 217.108 426.9C217.108 427.53 217.612 427.936 218.172 427.936ZM218.172 434.796C218.732 434.796 219.236 434.376 219.236 433.746C219.236 433.102 218.732 432.696 218.172 432.696C217.612 432.696 217.108 433.102 217.108 433.746C217.108 434.376 217.612 434.796 218.172 434.796Z"></path></g><rect x="237" y="409" width="40" height="40" stroke="rgba(0, 0, 0, 1)" stroke-width="1"      fill="#E5E7EB" ></rect><g ><path     fill="#000000"  d="M193.244 478.924C193.076 479.596 192.754 480.506 192.46 481.22L189.016 481.22L189.016 491.86L190.066 491.86L190.066 490.838L197.92 490.838L197.92 491.79L199.012 491.79L199.012 481.22L193.622 481.22C193.93 480.59 194.266 479.848 194.546 479.162L193.244 478.924ZM190.066 489.788L190.066 486.512L197.92 486.512L197.92 489.788L190.066 489.788ZM190.066 485.476L190.066 482.284L197.92 482.284L197.92 485.476L190.066 485.476ZM207.636 483.852L207.636 486.274L204.402 486.274L204.402 483.852L207.636 483.852ZM208.658 483.852L212.004 483.852L212.004 486.274L208.658 486.274L208.658 483.852ZM209.372 481.15C208.966 481.738 208.434 482.382 207.916 482.858L204.206 482.858C204.752 482.326 205.256 481.752 205.718 481.15L209.372 481.15ZM205.956 478.938C204.976 480.828 203.268 482.522 201.546 483.586C201.742 483.81 202.036 484.342 202.134 484.566C202.554 484.286 202.974 483.964 203.38 483.614L203.38 489.606C203.38 491.244 204.066 491.622 206.292 491.622C206.796 491.622 211.15 491.622 211.71 491.622C213.796 491.622 214.23 490.992 214.482 488.808C214.174 488.752 213.74 488.584 213.46 488.416C213.306 490.264 213.082 490.656 211.696 490.656C210.744 490.656 206.964 490.656 206.222 490.656C204.682 490.656 204.402 490.46 204.402 489.62L204.402 487.282L212.004 487.282L212.004 487.912L213.054 487.912L213.054 482.858L209.19 482.858C209.848 482.186 210.492 481.374 210.968 480.632L210.282 480.142L210.072 480.212L206.362 480.212C206.558 479.904 206.74 479.596 206.908 479.288L205.956 478.938ZM218.5 483.936C219.06 483.936 219.564 483.53 219.564 482.9C219.564 482.256 219.06 481.836 218.5 481.836C217.94 481.836 217.436 482.256 217.436 482.9C217.436 483.53 217.94 483.936 218.5 483.936ZM218.5 490.796C219.06 490.796 219.564 490.376 219.564 489.746C219.564 489.102 219.06 488.696 218.5 488.696C217.94 488.696 217.436 489.102 217.436 489.746C217.436 490.376 217.94 490.796 218.5 490.796Z"></path></g><rect x="237" y="465" width="40" height="40" stroke="rgba(0, 0, 0, 1)" stroke-width="1"      fill="#FFFFFF" ></rect></svg>